<svg width="113" height="42" viewBox="0 0 113 42" fill="none" xmlns="http://www.w3.org/2000/svg">
<g id="Group">
<g id="SvgjsG2831">
<path id="Vector" d="M1.86709 0.29834L13.6736 0.298368C18.9148 0.298368 22.2507 1.62208 23.6816 4.26948C24.4938 5.6608 24.8999 7.55434 24.8999 9.95084V12.8494C24.8999 15.5741 23.7106 17.7772 21.3318 19.4583C22.144 19.5936 23.169 20.212 24.4068 21.3134H25.3061C26.4858 22.5115 27.2497 23.671 27.5978 24.7918C27.6945 25.1783 27.7428 25.3909 27.7428 25.4295H28.8742V26.1252H25.1031V25.4295H17.3578V23.2265H9.75751V35.3138H14.5151V34.4442H17.3579V26.1253L25.1031 26.1252L25.1032 33.4588H25.9735V38.0675H23.3917V39.1399H25.9735V41.053H16.1396V41.8356H5.40632V41.053H3.08562V34.6762H6.27653V32.966H3.08562C3.0276 29.7195 2.99859 27.3043 2.99859 25.7196V22.6469H0.300781V21.8643H2.99859V20.2411H1.7222V0.443718C1.74154 0.347108 1.78973 0.29834 1.86709 0.29834ZM9.90248 7.31211L9.90245 17.6021H11.672C13.7606 17.6021 15.1335 17.2543 15.7912 16.5587C16.4487 15.9983 16.7775 14.4814 16.7775 12.0079V11.8629C16.7775 9.73732 16.4487 8.46202 15.7912 8.03668C15.3464 7.55358 13.8283 7.31203 11.2368 7.31203L9.90248 7.31211ZM3.08541 21.8635V22.6461H6.91469V21.8635H3.08541ZM1.51895 22.7911L2.94039 22.7911V23.0809C2.94039 23.1775 2.89204 23.2258 2.79535 23.2258H1.92508V23.5157H2.70832C2.805 23.535 2.85336 23.5834 2.85336 23.6607V23.8056C2.85336 23.9022 2.805 23.9505 2.70832 23.9505H1.92508V24.2984H2.9404V24.5882C2.9404 24.6655 2.89204 24.7042 2.79536 24.7042H1.51896L1.51895 22.7911ZM13.4415 25.4289L17.3578 25.4295L17.3579 26.1253L13.4415 26.1246V25.4289ZM26.2346 26.2695L26.4666 26.2695C26.5633 26.2888 26.6116 26.3371 26.6116 26.4144V27.6318C26.5343 28.057 26.3216 28.2695 25.9735 28.2695C25.5287 28.1922 25.3063 27.9797 25.3063 27.6318V27.5449C25.3256 27.4676 25.374 27.4289 25.4513 27.4289H25.5964C25.6931 27.4289 25.7704 27.5642 25.8284 27.8347H26.0895V26.4144C26.1089 26.3178 26.1572 26.2695 26.2346 26.2695ZM25.5962 28.7621L26.1764 28.7621C26.8339 28.7621 27.1627 29.1196 27.1627 29.8346C27.1627 30.3177 26.8532 30.5979 26.2344 30.6752H25.4511V28.9071C25.4705 28.8105 25.5189 28.7621 25.5962 28.7621ZM25.9735 29.197V30.2695H26.2346C26.5246 30.2695 26.6697 30.1245 26.6697 29.8347V29.6898C26.6697 29.3613 26.5053 29.197 26.1765 29.197L25.9735 29.197ZM25.5962 31.2548L26.6695 31.2548C26.7662 31.2741 26.8146 31.3224 26.8146 31.3997V31.6896H25.9733V32.0374H26.6696V32.3853H25.9733V33.023C25.9733 33.1196 25.925 33.1679 25.8283 33.1679H25.4512V31.3997C25.4705 31.3031 25.5189 31.2548 25.5962 31.2548ZM15.6459 32.3854H17.1544V32.7332L16.2261 33.8927H17.2124V34.1535C17.2124 34.2502 17.164 34.2985 17.0674 34.2985H15.733C15.6363 34.2985 15.5879 34.2502 15.5879 34.1535V33.9506L16.5162 32.8202H15.791C15.6943 32.8202 15.6459 32.7719 15.6459 32.6753L15.6459 32.3854ZM9.9604 33.6029L10.0474 33.6029C10.937 33.8735 11.3818 34.057 11.3818 34.1537V34.2986C11.2851 34.4339 10.8403 34.6464 10.0474 34.9363L9.9604 34.7913V34.7334C9.9604 34.5981 10.2505 34.4532 10.8307 34.2986C10.8307 34.202 10.5406 34.0667 9.9604 33.8928V33.6029Z" fill="white"/>
</g>
<g id="SvgjsG2832">
<path id="Vector_2" d="M41.9781 28.7496L40.8073 31.2348H38.9383L38.8801 29.2038C38.5565 29.8687 38.2183 30.5554 37.9129 31.2348H36.0402L36.0038 28.7496H35.6729L35.6184 25.7812H37.5165L37.4656 27.9285C37.7965 27.22 38.142 26.4933 38.4838 25.7812H40.2328V27.9285C40.5601 27.22 40.8691 26.4933 41.1891 25.7812H43.0509L41.6473 28.7496H41.9781ZM43.0617 28.8659H42.6908L43.4036 25.7993H47.2979L46.9852 27.1764H44.9089L44.7999 27.6415H46.7089L46.4289 28.8659H46.7998L46.7671 29.0112H44.8544L44.6617 29.8614H46.7307L46.418 31.2348H42.5161L43.0617 28.8659ZM54.345 28.7496L53.7922 31.2348H51.9487L52.5159 28.7496H52.185L52.5523 27.1582H51.0978L51.4178 25.7812H56.1376L55.8286 27.1582H54.3777L54.0214 28.7496H54.345ZM60.8427 28.8659L60.29 31.2348H58.4682L58.9846 29.0112H57.9301L57.4101 31.2348H55.5774L56.1265 28.8659H55.7592L56.461 25.7993H58.2937L57.8756 27.6415H58.9264L59.3519 25.7993H61.1772L60.4682 28.8659H60.8427ZM63.5118 28.8659L62.9664 31.2348H61.1265L61.6719 28.8659H61.301L62.0137 25.7993H63.85L63.1446 28.8659H63.5118ZM69.2062 28.8513L68.6644 31.2166H66.9735L66.2536 28.8513H66.1699L65.6209 31.2166H63.9082L64.4573 28.8513H64.1264L64.8282 25.8066H66.8244L67.4135 27.7177L67.8608 25.8066H69.5807L68.8753 28.8513H69.2062ZM73.4134 28.8659L74.4679 31.2348H72.3116L71.628 29.5962L71.2498 31.2348H69.4245L69.9699 28.8659H69.6026L70.3044 25.7993H72.1334L71.7807 27.3254C72.2571 26.8167 72.7225 26.3007 73.1952 25.7993H75.2969L72.817 28.3427L73.0388 28.8659H73.4134ZM78.6603 28.9095H78.2748C78.493 27.6524 79.4748 26.3189 80.6384 25.9156C81.8347 25.4978 82.8237 25.7012 83.8709 26.268L83.5219 27.7686H82.9473C82.8637 27.5651 82.9182 27.1655 82.0746 27.0928C80.8747 26.9874 80.0856 28.0375 79.9438 28.9095H80.3292C80.2565 29.3636 80.3547 29.7742 80.6638 29.9413C80.8674 30.0503 81.1619 30.1012 81.5983 30.0503H81.6056L81.7401 29.4617H80.8747L81.002 28.9095H80.6092L80.7983 28.0956H83.4673L83.2819 28.9095H83.6709L83.2092 30.9115C83.0237 30.9878 82.831 31.0495 82.6383 31.1149C81.7729 31.3802 80.6638 31.5582 79.802 31.213C78.7803 30.8134 78.493 29.8832 78.6603 28.9095ZM84.3873 28.7496H84.0564L84.7327 25.7812C85.3654 25.7812 86.5072 25.7194 87.409 25.8393C88.2053 25.9556 88.9762 26.2499 88.8417 27.2055C88.7653 27.7831 88.3217 28.3754 87.8417 28.7496H88.169C88.0817 28.815 87.9945 28.8841 87.8999 28.9313L89.1435 31.2348H86.9618L86.0527 29.4581L85.6491 31.2348H83.8164L84.3873 28.7496ZM86.2636 27.1254L86.0418 28.0628C86.9181 28.0628 87.409 27.1254 86.2636 27.1254ZM89.7944 28.8659H89.4235L90.1362 25.7993H94.0306L93.7179 27.1764H91.6416L91.5325 27.6415H93.4415L93.1615 28.8659H93.5324L93.4997 29.0112H91.5871L91.3943 29.8614H93.4633L93.1506 31.2348H89.2488L89.7944 28.8659ZM94.2306 28.8659H93.8597L94.5724 25.7993H98.4668L98.1541 27.1764H96.0778L95.9687 27.6415H97.8777L97.5977 28.8659H97.9686L97.9359 29.0112H96.0232L95.8305 29.8614H97.8995L97.5868 31.2348H93.685L94.2306 28.8659ZM103.481 28.8513L102.939 31.2166H101.248L100.529 28.8513H100.445L99.8958 31.2166H98.1832L98.7322 28.8513H98.4013L99.1031 25.8066H101.099L101.688 27.7177L102.136 25.8066H103.856L103.15 28.8513H103.481Z" fill="white"/>
</g>
<g id="SvgjsG2833">
<path id="Vector_3" d="M41.5521 13.7706C41.5521 14.6461 41.5123 15.3225 40.968 15.9592C41.3264 16.3704 41.5521 16.9407 41.5521 17.5376C41.5654 18.2672 41.5654 18.9834 41.5654 19.7129C41.5654 21.1322 40.4371 22.127 39.3087 22.127H35.6184V10.9984H38.6981C38.9105 10.9984 39.1096 10.9984 39.322 11.0117C40.7025 11.0117 41.5521 12.1524 41.5521 13.7706ZM37.6229 20.5088H38.6317C39.1362 20.5088 39.4149 20.4159 39.4946 19.8191C39.5211 19.4079 39.5344 18.9967 39.5344 18.5722C39.5344 18.1478 39.5078 17.7366 39.4813 17.3254C39.4149 16.9142 39.2025 16.6622 38.8839 16.6622H37.6229V20.5088ZM37.6229 15.1501H38.6715C39.1494 15.1501 39.4282 15.0175 39.4946 14.4736C39.5211 14.2614 39.5211 14.0094 39.5211 13.7706C39.5211 13.1207 39.4946 12.6167 38.6715 12.6167H37.6229V15.1501ZM46.8486 17.0601H44.7247V20.6149H47.9372V22.127H42.7203V10.9984H47.9372V12.5105H44.7247V15.5745H46.8486V17.0601ZM48.8 13.3197C48.8 11.8739 49.8885 10.8923 51.0301 10.8658C51.4284 10.8658 51.8133 10.8525 52.2115 10.8525C53.3797 10.8525 54.3886 11.8739 54.3886 13.3329V14.8052H52.477V13.9165C52.477 13.187 52.3708 12.5105 51.6275 12.5105C51.6142 12.5105 51.508 12.5238 51.4947 12.5238C51.1363 12.5503 50.8045 12.8554 50.8045 13.3992C50.8045 16.0521 54.7072 16.2245 54.7072 19.8058C54.7072 21.2648 53.6186 22.2729 52.4638 22.2729C51.9859 22.2729 51.508 22.2729 51.0301 22.2596C49.8752 22.2464 48.7867 21.2648 48.7867 19.8058V18.3202H50.7912V19.0232C50.7779 19.819 50.9106 20.6149 51.7602 20.6149C52.331 20.6149 52.7027 20.3231 52.7027 19.6334C52.7027 17.0469 48.8 16.9142 48.8 13.3197ZM57.3621 12.5105H55.0788V10.9984H61.663V12.5105H59.3798V22.127H57.3621V12.5105Z" fill="white"/>
</g>
<g id="SvgjsG2834">
<path id="Vector_4" d="M65.7073 17.1795V20.3761H68.7074V22.127H63.3445V11.0117H68.7074V12.7626L65.7073 12.7493V15.4552H67.5923V17.1795H65.7073ZM67.3268 16.9142V15.7205H65.4419V12.484L68.4419 12.4973V11.277H63.61V21.8617H68.4419V20.6414H65.4419V16.9142H67.3268ZM71.9862 10.9984V20.3629H74.1367V22.127H69.6101V10.9984H71.9862ZM73.8712 21.8617V20.6282H71.7207V11.2637H69.8755V21.8617H73.8712ZM77.2694 17.1795V20.3761H80.2695V22.127H74.9066V11.0117H80.2695V12.7626L77.2694 12.7493V15.4552H79.1544V17.1795H77.2694ZM78.8889 16.9142V15.7205H77.004V12.484L80.004 12.4973V11.277H75.1721V21.8617H80.004V20.6414H77.004V16.9142H78.8889ZM87.3182 18.2937V19.7395C87.3315 21.0393 86.2961 22.2729 84.9554 22.2729C84.889 22.2596 84.8492 22.2596 84.7961 22.2596H84.2386C84.0793 22.2596 83.92 22.2596 83.7607 22.2729H83.5616C82.2208 22.2729 81.1854 21.0924 81.1854 19.7793V13.3462C81.1854 12.0463 82.2341 10.8525 83.5616 10.8525C83.8271 10.8658 84.0925 10.8658 84.3448 10.8658H84.9421C86.2828 10.8658 87.3315 12.0463 87.3182 13.3594V15.097H84.9288V14.1155C84.9554 12.8289 84.8757 12.7758 84.0527 12.7758C83.7341 12.7758 83.535 12.8289 83.535 13.2401V19.8854C83.535 20.3363 83.9067 20.3496 84.2386 20.3496C84.8492 20.3231 84.9288 19.5803 84.9288 18.7049V18.2937H87.3182ZM85.1943 13.7839V14.8318H87.0528V13.3594C87.0528 12.2055 86.1501 11.1311 84.9554 11.1311H84.6235C84.2651 11.1311 83.92 11.1178 83.5616 11.1178C82.4067 11.1178 81.4509 12.1789 81.4509 13.3462V19.7793C81.4509 20.9598 82.3934 22.0076 83.5616 22.0076C83.8403 22.0076 84.1456 22.0209 84.4377 22.0209H84.5041C84.7563 22.0209 85.0218 22.0209 85.2607 21.9811C86.2961 21.8219 87.0528 20.8006 87.0528 19.7395V18.559H85.1943V18.8773C85.1943 19.6068 85.1147 20.6282 84.1324 20.6282C83.8005 20.6282 83.2695 20.4955 83.2695 19.8854V13.2401C83.2695 12.6167 83.6678 12.5105 84.0527 12.5105C85.1147 12.5105 85.1943 12.8687 85.1943 13.7839ZM94.6325 12.7626H92.4422V22.127H90.0793V12.7626H87.8891V11.0117H94.6325V12.7626ZM92.1767 21.8617V12.4973H94.367V11.277H88.1545V12.4973H90.3448V21.8617H92.1767ZM97.7653 17.9621V22.127H95.4024V11.0117H98.5883C98.7742 11.0117 98.96 10.9984 99.1326 10.9984C99.3317 10.9984 99.5308 11.025 99.7166 11.078C100.646 11.3433 101.495 12.2585 101.469 13.4125V13.9033C101.469 14.4736 101.456 15.044 101.469 15.6143C101.495 16.4898 101.018 17.2723 100.433 17.6968L101.867 22.127H99.4512L98.1768 17.9753C98.0308 17.9621 97.898 17.9621 97.7653 17.9621ZM97.4998 17.6968L98.3626 17.7101L99.6503 21.8617H101.495L100.128 17.604L100.274 17.4846C100.845 17.0734 101.203 16.3704 101.203 15.6674V13.4125C101.203 12.2718 100.287 11.2637 99.1326 11.2637L95.6679 11.277V21.8617H97.4998V17.6968ZM97.4998 12.6167H98.6149C99.1724 12.6167 99.3184 13.187 99.3184 13.4788V15.6674C99.3184 16.0653 99.1458 16.5163 98.6812 16.5163L97.4998 16.503V12.6167ZM97.7653 12.8819V16.2378C98.0839 16.2378 98.3759 16.251 98.6812 16.251C98.9733 16.251 99.0529 15.9061 99.0529 15.6674V13.4788C99.0662 13.1605 98.8671 12.8687 98.6149 12.8819H97.7653ZM102.73 10.9984H105.106V22.127H102.73V10.9984ZM102.995 11.2637V21.8617H104.841V11.2637H102.995ZM112.699 18.2937V19.7395C112.712 21.0393 111.677 22.2729 110.336 22.2729C110.27 22.2596 110.23 22.2596 110.177 22.2596H109.619C109.46 22.2596 109.301 22.2596 109.142 22.2729H108.942C107.602 22.2729 106.566 21.0924 106.566 19.7793V13.3462C106.566 12.0463 107.615 10.8525 108.942 10.8525C109.208 10.8658 109.473 10.8658 109.726 10.8658H110.323C111.664 10.8658 112.712 12.0463 112.699 13.3594V15.097H110.31V14.1155C110.336 12.8289 110.257 12.7758 109.434 12.7758C109.115 12.7758 108.916 12.8289 108.916 13.2401V19.8854C108.916 20.3363 109.288 20.3496 109.619 20.3496C110.23 20.3231 110.31 19.5803 110.31 18.7049V18.2937H112.699ZM110.575 13.7839V14.8318H112.434V13.3594C112.434 12.2055 111.531 11.1311 110.336 11.1311H110.004C109.646 11.1311 109.301 11.1178 108.942 11.1178C107.788 11.1178 106.832 12.1789 106.832 13.3462V19.7793C106.832 20.9598 107.774 22.0076 108.942 22.0076C109.221 22.0076 109.527 22.0209 109.819 22.0209H109.885C110.137 22.0209 110.403 22.0209 110.642 21.9811C111.677 21.8219 112.434 20.8006 112.434 19.7395V18.559H110.575V18.8773C110.575 19.6068 110.496 20.6282 109.513 20.6282C109.181 20.6282 108.65 20.4955 108.65 19.8854V13.2401C108.65 12.6167 109.049 12.5105 109.434 12.5105C110.496 12.5105 110.575 12.8687 110.575 13.7839Z" fill="white"/>
</g>
</g>
</svg>
