<svg width="113" height="35" viewBox="0 0 113 35" fill="none" xmlns="http://www.w3.org/2000/svg">
<g id="Group">
<g id="SvgjsG1052">
<path id="Vector" d="M25.1473 18.9895L16.7096 34.3056H6.0968L4.53669 18.9895H2.51516L0.625488 0.694824H12.1173L13.4576 16.8394C16.424 11.5325 19.1048 5.9793 22.0491 0.694824H33.2552L23.1696 18.9895H25.1473Z" fill="white"/>
</g>
<g id="SvgjsG1053">
<path id="Vector_2" d="M44.5354 23.0295L45.9474 28.5042H45.9646L47.3163 23.0295H47.9189L46.2917 29.3464H45.646L44.2083 23.7665H44.1911L42.7533 29.3464H42.1076L40.5062 23.0295H41.0917L42.4261 28.5042H42.4433L43.8811 23.0295H44.5354ZM52.9468 29.3464H48.7368V23.0295H52.8607V23.5384H49.3223V25.8195H52.5164V26.3283H49.3223V28.8376H52.9468V29.3464ZM55.831 23.5384V23.0295H60.3423V23.5384H58.3794V29.3464H57.7939V23.5384H55.831ZM61.7543 29.3464H61.1688V23.0295H61.7543V25.7405H65.4219V23.0295H66.0073V29.3464H65.4219V26.2494H61.7543V29.3464ZM68.1855 29.3464H67.6V23.0295H68.1855V29.3464ZM73.9366 29.3464L70.3723 23.8367H70.3551V29.3464H69.7696V23.0295H70.4325L74.0141 28.548H74.0313V23.0295H74.6167V29.3464H73.9366ZM76.6227 29.3464H76.0373V23.0295H76.6227V26.302L79.7996 23.0295H80.4625L78.0174 25.5475L80.893 29.3464H80.1784L77.5956 25.916L76.6227 26.9074V29.3464ZM88.8653 26.5915H86.7732V26.0827H89.4249V29.3464H88.9256V28.2673C88.4951 29.0218 87.8322 29.5131 86.6096 29.5131C85.0427 29.5131 83.8977 28.3989 83.8977 26.1529C83.8977 24.3016 84.8103 22.8628 86.7646 22.8628C88.0646 22.8628 89.0891 23.512 89.356 24.8632H88.7534C88.5467 23.9156 87.7288 23.3717 86.8076 23.3717C85.1718 23.3717 84.4831 24.5999 84.4831 26.3897C84.4831 27.7847 85.3096 29.0042 86.7302 29.0042C87.4017 29.0042 88.1938 28.7147 88.5984 27.8988C88.7964 27.504 88.8567 27.0653 88.8653 26.5915ZM91.4137 25.9686H93.2389C94.1084 25.9686 94.78 25.6001 94.78 24.714C94.78 23.7665 94.0568 23.5384 93.2733 23.5384H91.4137V25.9686ZM93.2561 26.4775H91.4137V29.3464H90.8282V23.0295H93.2561C94.6164 23.0295 95.3654 23.5208 95.3654 24.6877C95.3654 25.4861 95.0727 25.9072 94.3581 26.2318C95.0899 26.4863 95.1329 27.2759 95.1502 27.9427C95.176 28.899 95.2535 29.1622 95.4084 29.285V29.3464H94.7627C94.5217 28.9165 94.5819 27.7321 94.4872 27.2495C94.3495 26.5652 93.8415 26.4775 93.2561 26.4775ZM100.789 29.3464H96.5793V23.0295H100.703V23.5384H97.1648V25.8195H100.359V26.3283H97.1648V28.8376H100.789V29.3464ZM106.05 29.3464H101.84V23.0295H105.964V23.5384H102.425V25.8195H105.619V26.3283H102.425V28.8376H106.05V29.3464ZM111.25 29.3464L107.685 23.8367H107.668V29.3464H107.083V23.0295H107.746L111.327 28.548H111.344V23.0295H111.93V29.3464H111.25Z" fill="white"/>
</g>
<g id="SvgjsG1054">
<path id="Vector_3" d="M49.9633 6.04667H52.767L48.0736 18.9887H45.1732L40.5062 6.04667H43.3012L46.6323 15.8538L49.9633 6.04667ZM60.2991 19.1678C56.5637 19.1678 53.804 16.5704 53.804 12.513C53.804 8.4467 56.5637 5.86719 60.2991 5.86719C64.0257 5.86719 66.7854 8.4467 66.7854 12.513C66.7854 16.5703 64.0257 19.1678 60.2991 19.1678ZM60.2991 16.7048C62.4876 16.7048 64.1663 15.1374 64.1663 12.5131C64.1663 9.89773 62.4877 8.33929 60.2991 8.33929C58.1106 8.33929 56.4319 9.89773 56.4319 12.5131C56.4319 15.1374 58.1106 16.7048 60.2991 16.7048ZM71.848 16.6152H75.8294V18.9887H69.2113V6.04667H71.848V16.6152Z" fill="white"/>
</g>
<g id="SvgjsG1055">
<path id="Vector_4" d="M79.5319 5.86719C79.7064 5.86719 79.8547 5.92942 79.9768 6.05389C80.099 6.17837 80.16 6.32951 80.16 6.50733V7.80538C80.16 7.9832 80.099 8.13434 79.9768 8.25881C79.8547 8.38328 79.7064 8.44552 79.5319 8.44552H77.7346C77.5718 8.44552 77.4293 8.38328 77.3071 8.25881C77.185 8.13434 77.1239 7.9832 77.1239 7.80538V6.50733C77.1239 6.32951 77.185 6.17837 77.3071 6.05389C77.4293 5.92942 77.5718 5.86719 77.7346 5.86719H79.5319ZM87.3316 5.86719C87.4944 5.86719 87.6369 5.92942 87.7591 6.05389C87.8812 6.17837 87.9423 6.32951 87.9423 6.50733V7.80538C87.9423 7.9832 87.8812 8.13434 87.7591 8.25881C87.6369 8.38328 87.4944 8.44552 87.3316 8.44552H83.8243V18.5455C83.8243 18.7114 83.7633 18.8566 83.6411 18.9811C83.519 19.1056 83.3765 19.1678 83.2136 19.1678H81.87C81.6955 19.1678 81.5472 19.1056 81.4251 18.9811C81.3029 18.8566 81.2419 18.7114 81.2419 18.5455V6.50733C81.2419 6.32951 81.3029 6.17837 81.4251 6.05389C81.5472 5.92942 81.6955 5.86719 81.87 5.86719H87.3316ZM98.8305 16.5006C99.005 16.5006 99.1504 16.5628 99.2667 16.6873C99.383 16.8118 99.4412 16.9629 99.4412 17.1407V18.4388C99.4412 18.6047 99.383 18.75 99.2667 18.8744C99.1504 18.9989 99.005 19.0611 98.8305 19.0611H90.2107C90.0478 19.0611 89.9053 18.9989 89.7832 18.8744C89.661 18.75 89.5999 18.6047 89.5999 18.4388V17.1407C89.5999 16.9629 89.661 16.8118 89.7832 16.6873C89.9053 16.5628 90.0478 16.5006 90.2107 16.5006H98.8305ZM90.2107 13.7444C90.0478 13.7444 89.9053 13.6822 89.7832 13.5577C89.661 13.4333 89.5999 13.288 89.5999 13.1221V11.7885C89.5999 11.6225 89.661 11.4773 89.7832 11.3528C89.9053 11.2283 90.0478 11.1661 90.2107 11.1661H98.0453C98.2198 11.1661 98.3681 11.2283 98.4902 11.3528C98.6124 11.4773 98.6734 11.6225 98.6734 11.7885V13.1221C98.6734 13.288 98.6124 13.4333 98.4902 13.5577C98.3681 13.6822 98.2198 13.7444 98.0453 13.7444H90.2107ZM98.8305 5.86719C99.005 5.86719 99.1504 5.92942 99.2667 6.05389C99.383 6.17837 99.4412 6.32358 99.4412 6.48954V7.7876C99.4412 7.96542 99.383 8.11656 99.2667 8.24103C99.1504 8.3655 99.005 8.42774 98.8305 8.42774H90.2107C90.0478 8.42774 89.9053 8.3655 89.7832 8.24103C89.661 8.11656 89.5999 7.96542 89.5999 7.7876V6.48954C89.5999 6.32358 89.661 6.17837 89.7832 6.05389C89.9053 5.92942 90.0478 5.86719 90.2107 5.86719H98.8305ZM112.249 18.1543C112.319 18.2491 112.359 18.3558 112.371 18.4743C112.383 18.5929 112.365 18.7055 112.319 18.8122C112.272 18.9189 112.196 19.0048 112.092 19.07C111.987 19.1352 111.877 19.1678 111.76 19.1678H110.068C109.858 19.1678 109.69 19.0848 109.562 18.9189L106.229 14.4201L102.896 18.9189C102.768 19.0848 102.605 19.1678 102.408 19.1678H100.698C100.581 19.1678 100.474 19.1382 100.375 19.0789C100.276 19.0196 100.203 18.9367 100.157 18.83C100.04 18.581 100.058 18.3558 100.209 18.1543L109.248 6.11613C109.375 5.95017 109.538 5.86719 109.736 5.86719H111.429C111.545 5.86719 111.653 5.89979 111.751 5.96499C111.85 6.03019 111.929 6.11613 111.987 6.22282C112.045 6.32951 112.068 6.44213 112.057 6.56067C112.045 6.67921 111.999 6.7859 111.917 6.88074L107.817 12.3219L112.249 18.1543ZM103.053 10.2059L100.54 6.88074C100.459 6.7859 100.413 6.67921 100.401 6.56067C100.389 6.44213 100.413 6.32951 100.471 6.22282C100.529 6.11613 100.607 6.03019 100.706 5.96499C100.805 5.89979 100.913 5.86719 101.029 5.86719H102.722C102.815 5.86719 102.908 5.88793 103.001 5.92942C103.094 5.97091 103.164 6.03315 103.21 6.11613L105.67 9.44129C105.833 9.64282 105.857 9.86805 105.74 10.117C105.694 10.2237 105.621 10.3067 105.522 10.3659C105.423 10.4252 105.31 10.4548 105.182 10.4548H103.542C103.449 10.4548 103.356 10.4341 103.263 10.3926C103.169 10.3511 103.1 10.2889 103.053 10.2059Z" fill="white"/>
</g>
</g>
</svg>
