<svg width="113" height="42" viewBox="0 0 113 42" fill="none" xmlns="http://www.w3.org/2000/svg">
<g id="Group">
<g id="SvgjsG2831">
<path id="Vector" d="M1.86709 0.30127L13.6736 0.301298C18.9148 0.301298 22.2507 1.6263 23.6816 4.27628C24.4938 5.66896 24.8999 7.56435 24.8999 9.96319V12.8646C24.8999 15.5919 23.7106 17.7972 21.3318 19.48C22.144 19.6154 23.169 20.2343 24.4068 21.3369H25.3061C26.4858 22.5361 27.2497 23.6967 27.5978 24.8187C27.6945 25.2055 27.7428 25.4183 27.7428 25.4569H28.8742V26.1533H25.1031V25.4569H17.3578V23.2518H9.75751V35.3509H14.5151V34.4805H17.3579V26.1535L25.1031 26.1533L25.1032 33.4941H25.9735V38.1072H23.3917V39.1808H25.9735V41.0957H16.1396V41.8791H5.40632V41.0957H3.08562V34.7127H6.27653V33.0008H3.08562C3.0276 29.7511 2.99859 27.3335 2.99859 25.7473V22.6717H0.300781V21.8883H2.99859V20.2635H1.7222V0.44679C1.74154 0.350085 1.78973 0.30127 1.86709 0.30127ZM9.90248 7.32189L9.90245 17.622H11.672C13.7606 17.622 15.1335 17.2738 15.7912 16.5774C16.4487 16.0165 16.7775 14.4981 16.7775 12.0222V11.8771C16.7775 9.74945 16.4487 8.47291 15.7912 8.04716C15.3464 7.56359 13.8283 7.3218 11.2368 7.3218L9.90248 7.32189ZM3.08541 21.8875V22.6709H6.91469V21.8875H3.08541ZM1.51895 22.816L2.94039 22.8159V23.1061C2.94039 23.2028 2.89204 23.2511 2.79535 23.2511H1.92508V23.5413H2.70832C2.805 23.5606 2.85336 23.609 2.85336 23.6864V23.8315C2.85336 23.9282 2.805 23.9765 2.70832 23.9765H1.92508V24.3247H2.9404V24.6148C2.9404 24.6922 2.89204 24.7309 2.79536 24.7309H1.51896L1.51895 22.816ZM13.4415 25.4563L17.3578 25.4569L17.3579 26.1535L13.4415 26.1527V25.4563ZM26.2346 26.2977L26.4666 26.2977C26.5633 26.3171 26.6116 26.3654 26.6116 26.4428V27.6614C26.5343 28.087 26.3216 28.2997 25.9735 28.2997C25.5287 28.2224 25.3063 28.0096 25.3063 27.6614V27.5744C25.3256 27.497 25.374 27.4583 25.4513 27.4583H25.5964C25.6931 27.4583 25.7704 27.5937 25.8284 27.8645H26.0895V26.4428C26.1089 26.3461 26.1572 26.2977 26.2346 26.2977ZM25.5962 28.7928L26.1764 28.7928C26.8339 28.7928 27.1627 29.1507 27.1627 29.8663C27.1627 30.3499 26.8532 30.6304 26.2344 30.7078H25.4511V28.9379C25.4705 28.8412 25.5189 28.7928 25.5962 28.7928ZM25.9735 29.2281V30.3016H26.2346C26.5246 30.3016 26.6697 30.1566 26.6697 29.8664V29.7214C26.6697 29.3926 26.5053 29.2281 26.1765 29.2281L25.9735 29.2281ZM25.5962 31.2879L26.6695 31.2879C26.7662 31.3073 26.8146 31.3556 26.8146 31.433V31.7231H25.9733V32.0713H26.6696V32.4195H25.9733V33.0578C25.9733 33.1545 25.925 33.2029 25.8283 33.2029H25.4512V31.433C25.4705 31.3363 25.5189 31.2879 25.5962 31.2879ZM15.6459 32.4196H17.1544V32.7678L16.2261 33.9284H17.2124V34.1895C17.2124 34.2862 17.164 34.3346 17.0674 34.3346H15.733C15.6363 34.3346 15.5879 34.2862 15.5879 34.1895V33.9864L16.5162 32.8549H15.791C15.6943 32.8549 15.6459 32.8065 15.6459 32.7098L15.6459 32.4196ZM9.9604 33.6383L10.0474 33.6384C10.937 33.9092 11.3818 34.0929 11.3818 34.1896V34.3347C11.2851 34.4701 10.8403 34.6829 10.0474 34.973L9.9604 34.8279V34.7699C9.9604 34.6345 10.2505 34.4894 10.8307 34.3347C10.8307 34.238 10.5406 34.1026 9.9604 33.9285V33.6383Z" fill="black"/>
</g>
<g id="SvgjsG2832">
<path id="Vector_2" d="M41.9783 28.7804L40.8074 31.2681H38.9384L38.8802 29.235C38.5566 29.9006 38.2185 30.588 37.913 31.2681H36.0403L36.004 28.7804H35.6731L35.6185 25.8091H37.5167L37.4657 27.9585C37.7966 27.2493 38.1421 26.5219 38.4839 25.8091H40.2329V27.9585C40.5602 27.2493 40.8693 26.5219 41.1893 25.8091H43.051L41.6474 28.7804H41.9783ZM43.0619 28.8968H42.691L43.4037 25.8273H47.2981L46.9854 27.2057H44.9091L44.8 27.6712H46.709L46.429 28.8968H46.7999L46.7672 29.0423H44.8545L44.6618 29.8933H46.7308L46.4181 31.2681H42.5163L43.0619 28.8968ZM54.3451 28.7804L53.7924 31.2681H51.9488L52.516 28.7804H52.1851L52.5524 27.1875H51.0979L51.4179 25.8091H56.1378L55.8287 27.1875H54.3778L54.0215 28.7804H54.3451ZM60.8428 28.8968L60.2901 31.2681H58.4684L58.9847 29.0423H57.9302L57.4102 31.2681H55.5776L56.1266 28.8968H55.7594L56.4612 25.8273H58.2938L57.8757 27.6712H58.9266L59.352 25.8273H61.1774L60.4683 28.8968H60.8428ZM63.5119 28.8968L62.9665 31.2681H61.1266L61.672 28.8968H61.3011L62.0138 25.8273H63.8501L63.1447 28.8968H63.5119ZM69.2063 28.8823L68.6645 31.2499H66.9736L66.2537 28.8823H66.17L65.621 31.2499H63.9083L64.4574 28.8823H64.1265L64.8283 25.8345H66.8246L67.4136 27.7475L67.8609 25.8345H69.5808L68.8754 28.8823H69.2063ZM73.4135 28.8968L74.468 31.2681H72.3117L71.6281 29.6278L71.25 31.2681H69.4246L69.97 28.8968H69.6028L70.3046 25.8273H72.1336L71.7809 27.3548C72.2572 26.8456 72.7226 26.3292 73.1953 25.8273H75.2971L72.8171 28.3731L73.0389 28.8968H73.4135ZM78.6604 28.9405H78.2749C78.4931 27.6821 79.4749 26.3473 80.6385 25.9436C81.8348 25.5254 82.8238 25.7291 83.8711 26.2964L83.522 27.7985H82.9475C82.8638 27.5948 82.9184 27.1947 82.0747 27.122C80.8748 27.0165 80.0857 28.0676 79.9439 28.9404H80.3294C80.2566 29.3951 80.3548 29.806 80.6639 29.9733C80.8675 30.0824 81.1621 30.1333 81.5984 30.0824H81.6057L81.7402 29.4933H80.8748L81.0021 28.9404H80.6094L80.7985 28.1258H83.4674L83.282 28.9404H83.6711L83.2093 30.9444C83.0238 31.0208 82.8311 31.0826 82.6384 31.1481C81.773 31.4135 80.6639 31.5918 79.8021 31.2462C78.7804 30.8462 78.4931 29.9152 78.6604 28.9405ZM84.3874 28.7804H84.0565L84.7329 25.8091C85.3656 25.8091 86.5073 25.7473 87.4091 25.8673C88.2055 25.9837 88.9763 26.2782 88.8418 27.2348C88.7655 27.813 88.3218 28.4058 87.8419 28.7804H88.1691C88.0819 28.8459 87.9946 28.915 87.9001 28.9623L89.1436 31.2681H86.9619L86.0528 29.4896L85.6492 31.2681H83.8165L84.3874 28.7804ZM86.2637 27.1547L86.0419 28.093C86.9183 28.093 87.4092 27.1547 86.2637 27.1547ZM89.7945 28.8968H89.4236L90.1363 25.8273H94.0307L93.718 27.2057H91.6417L91.5326 27.6712H93.4417L93.1617 28.8968H93.5326L93.4998 29.0423H91.5872L91.3945 29.8933H93.4635L93.1507 31.2681H89.2489L89.7945 28.8968ZM94.2307 28.8968H93.8598L94.5725 25.8273H98.4669L98.1542 27.2057H96.0779L95.9688 27.6712H97.8778L97.5978 28.8968H97.9687L97.936 29.0423H96.0234L95.8307 29.8933H97.8996L97.5869 31.2681H93.6851L94.2307 28.8968ZM103.481 28.8823L102.939 31.2499H101.249L100.529 28.8823H100.445L99.8959 31.2499H98.1833L98.7324 28.8823H98.4015L99.1033 25.8345H101.1L101.689 27.7475L102.136 25.8345H103.856L103.15 28.8823H103.481Z" fill="black"/>
</g>
<g id="SvgjsG2833">
<path id="Vector_3" d="M41.5522 13.7867C41.5522 14.6629 41.5124 15.3401 40.9682 15.9774C41.3266 16.389 41.5522 16.9599 41.5522 17.5573C41.5655 18.2876 41.5655 19.0045 41.5655 19.7348C41.5655 21.1554 40.4372 22.1512 39.3088 22.1512H35.6185V11.0118H38.6982C38.9106 11.0118 39.1097 11.0118 39.3221 11.025C40.7027 11.025 41.5522 12.1669 41.5522 13.7867ZM37.623 20.5314H38.6318C39.1363 20.5314 39.415 20.4384 39.4947 19.841C39.5212 19.4294 39.5345 19.0178 39.5345 18.5929C39.5345 18.1681 39.508 17.7565 39.4814 17.3449C39.415 16.9333 39.2026 16.6811 38.8841 16.6811H37.623V20.5314ZM37.623 15.1675H38.6717C39.1495 15.1675 39.4283 15.0347 39.4947 14.4903C39.5212 14.2779 39.5212 14.0257 39.5212 13.7867C39.5212 13.1361 39.4947 12.6316 38.6717 12.6316H37.623V15.1675ZM46.8488 17.0794H44.7248V20.6376H47.9373V22.1512H42.7204V11.0118H47.9373V12.5253H44.7248V15.5923H46.8488V17.0794ZM48.8001 13.3352C48.8001 11.8881 49.8886 10.9056 51.0302 10.879C51.4285 10.879 51.8134 10.8657 52.2117 10.8657C53.3798 10.8657 54.3887 11.8881 54.3887 13.3485V14.8223H52.4772V13.9327C52.4772 13.2025 52.371 12.5253 51.6276 12.5253C51.6143 12.5253 51.5081 12.5386 51.4948 12.5386C51.1364 12.5652 50.8046 12.8706 50.8046 13.4149C50.8046 16.0703 54.7073 16.2429 54.7073 19.8277C54.7073 21.2882 53.6188 22.2972 52.4639 22.2972C51.986 22.2972 51.5081 22.2972 51.0302 22.284C49.8754 22.2707 48.7868 21.2882 48.7868 19.8277V18.3407H50.7913V19.0444C50.778 19.841 50.9108 20.6376 51.7603 20.6376C52.3311 20.6376 52.7028 20.3455 52.7028 19.6551C52.7028 17.0661 48.8001 16.9333 48.8001 13.3352ZM57.3622 12.5253H55.079V11.0118H61.6631V12.5253H59.3799V22.1512H57.3622V12.5253Z" fill="black"/>
</g>
<g id="SvgjsG2834">
<path id="Vector_4" d="M65.7075 17.1989V20.3986H68.7075V22.1512H63.3446V11.025H68.7075V12.7776L65.7075 12.7643V15.4728H67.5924V17.1989H65.7075ZM67.327 16.9333V15.7384H65.442V12.4988L68.442 12.5121V11.2906H63.6101V21.8856H68.442V20.6642H65.442V16.9333H67.327ZM71.9863 11.0118V20.3853H74.1368V22.1512H69.6102V11.0118H71.9863ZM73.8713 21.8856V20.6509H71.7208V11.2773H69.8757V21.8856H73.8713ZM77.2696 17.1989V20.3986H80.2696V22.1512H74.9067V11.025H80.2696V12.7776L77.2696 12.7643V15.4728H79.1545V17.1989H77.2696ZM78.8891 16.9333V15.7384H77.0041V12.4988L80.0041 12.5121V11.2906H75.1722V21.8856H80.0041V20.6642H77.0041V16.9333H78.8891ZM87.3184 18.3141V19.7613C87.3316 21.0625 86.2962 22.2972 84.9555 22.2972C84.8891 22.284 84.8493 22.284 84.7962 22.284H84.2387C84.0794 22.284 83.9201 22.284 83.7608 22.2972H83.5617C82.221 22.2972 81.1855 21.1156 81.1855 19.8012V13.3618C81.1855 12.0607 82.2342 10.8657 83.5617 10.8657C83.8272 10.879 84.0927 10.879 84.3449 10.879H84.9422C86.283 10.879 87.3316 12.0607 87.3184 13.3751V15.1144H84.929V14.1319C84.9555 12.844 84.8759 12.7909 84.0528 12.7909C83.7343 12.7909 83.5351 12.844 83.5351 13.2556V19.9074C83.5351 20.3588 83.9068 20.3721 84.2387 20.3721C84.8493 20.3455 84.929 19.602 84.929 18.7257V18.3141H87.3184ZM85.1944 13.7999V14.8488H87.0529V13.3751C87.0529 12.22 86.1502 11.1445 84.9555 11.1445H84.6236C84.2652 11.1445 83.9201 11.1313 83.5617 11.1313C82.4068 11.1313 81.451 12.1934 81.451 13.3618V19.8012C81.451 20.9828 82.3935 22.0317 83.5617 22.0317C83.8405 22.0317 84.1458 22.045 84.4378 22.045H84.5042C84.7564 22.045 85.0219 22.045 85.2608 22.0051C86.2962 21.8458 87.0529 20.8235 87.0529 19.7613V18.5797H85.1944V18.8983C85.1944 19.6286 85.1148 20.6509 84.1325 20.6509C83.8006 20.6509 83.2696 20.5181 83.2696 19.9074V13.2556C83.2696 12.6316 83.6679 12.5253 84.0528 12.5253C85.1148 12.5253 85.1944 12.8838 85.1944 13.7999ZM94.6326 12.7776H92.4423V22.1512H90.0795V12.7776H87.8892V11.025H94.6326V12.7776ZM92.1768 21.8856V12.5121H94.3671V11.2906H88.1547V12.5121H90.345V21.8856H92.1768ZM97.7654 17.9822V22.1512H95.4025V11.025H98.5884C98.7743 11.025 98.9601 11.0118 99.1327 11.0118C99.3318 11.0118 99.5309 11.0383 99.7168 11.0914C100.646 11.357 101.496 12.2731 101.469 13.4282V13.9194C101.469 14.4903 101.456 15.0613 101.469 15.6322C101.496 16.5085 101.018 17.2918 100.434 17.7167L101.867 22.1512H99.4513L98.1769 17.9955C98.0309 17.9822 97.8982 17.9822 97.7654 17.9822ZM97.4999 17.7167L98.3628 17.7299L99.6504 21.8856H101.496L100.128 17.6237L100.274 17.5042C100.845 17.0926 101.204 16.389 101.204 15.6853V13.4282C101.204 12.2864 100.288 11.2773 99.1327 11.2773L95.668 11.2906V21.8856H97.4999V17.7167ZM97.4999 12.6316H98.615C99.1725 12.6316 99.3185 13.2025 99.3185 13.4946V15.6853C99.3185 16.0836 99.146 16.535 98.6814 16.535L97.4999 16.5217V12.6316ZM97.7654 12.8971V16.2562C98.084 16.2562 98.376 16.2695 98.6814 16.2695C98.9734 16.2695 99.053 15.9243 99.053 15.6853V13.4946C99.0663 13.1759 98.8672 12.8838 98.615 12.8971H97.7654ZM102.73 11.0118H105.106V22.1512H102.73V11.0118ZM102.996 11.2773V21.8856H104.841V11.2773H102.996ZM112.699 18.3141V19.7613C112.713 21.0625 111.677 22.2972 110.336 22.2972C110.27 22.284 110.23 22.284 110.177 22.284H109.62C109.46 22.284 109.301 22.284 109.142 22.2972H108.943C107.602 22.2972 106.566 21.1156 106.566 19.8012V13.3618C106.566 12.0607 107.615 10.8657 108.943 10.8657C109.208 10.879 109.474 10.879 109.726 10.879H110.323C111.664 10.879 112.713 12.0607 112.699 13.3751V15.1144H110.31V14.1319C110.336 12.844 110.257 12.7909 109.434 12.7909C109.115 12.7909 108.916 12.844 108.916 13.2556V19.9074C108.916 20.3588 109.288 20.3721 109.62 20.3721C110.23 20.3455 110.31 19.602 110.31 18.7257V18.3141H112.699ZM110.575 13.7999V14.8488H112.434V13.3751C112.434 12.22 111.531 11.1445 110.336 11.1445H110.005C109.646 11.1445 109.301 11.1313 108.943 11.1313C107.788 11.1313 106.832 12.1934 106.832 13.3618V19.8012C106.832 20.9828 107.774 22.0317 108.943 22.0317C109.221 22.0317 109.527 22.045 109.819 22.045H109.885C110.137 22.045 110.403 22.045 110.642 22.0051C111.677 21.8458 112.434 20.8235 112.434 19.7613V18.5797H110.575V18.8983C110.575 19.6286 110.496 20.6509 109.513 20.6509C109.181 20.6509 108.651 20.5181 108.651 19.9074V13.2556C108.651 12.6316 109.049 12.5253 109.434 12.5253C110.496 12.5253 110.575 12.8838 110.575 13.7999Z" fill="black"/>
</g>
</g>
</svg>
