<svg width="186" height="56" viewBox="0 0 186 56" fill="none" xmlns="http://www.w3.org/2000/svg">
<g id="Group">
<g id="SvgjsG1052">
<path id="Vector" d="M41.3605 30.3977L27.4631 55.0529H9.98326L7.41366 30.3977H4.08408L0.97168 0.947754H19.8993L22.107 26.9367C26.9928 18.3938 31.4081 9.45447 36.2577 0.947754H54.7147L38.1032 30.3977H41.3605Z" fill="black"/>
</g>
<g id="SvgjsG1053">
<path id="Vector_2" d="M73.2941 36.9004L75.6196 45.7133H75.648L77.8743 36.9004H78.8669L76.1868 47.0691H75.1233L72.7552 38.0868H72.7268L70.3587 47.0691H69.2952L66.6577 36.9004H67.622L69.8199 45.7133H69.8483L72.2164 36.9004H73.2941ZM87.1481 47.0691H80.214V36.9004H87.0063V37.7196H81.1782V41.3916H86.4391V42.2107H81.1782V46.25H87.1481V47.0691ZM91.8985 37.7196V36.9004H99.3289V37.7196H96.0958V47.0691H95.1316V37.7196H91.8985ZM101.654 47.0691H100.69V36.9004H101.654V41.2645H107.695V36.9004H108.659V47.0691H107.695V42.0836H101.654V47.0691ZM112.247 47.0691H111.283V36.9004H112.247V47.0691ZM121.719 47.0691L115.849 38.1998H115.82V47.0691H114.856V36.9004H115.948L121.847 45.7839H121.875V36.9004H122.84V47.0691H121.719ZM126.144 47.0691H125.179V36.9004H126.144V42.1684L131.376 36.9004H132.468L128.441 40.9538L133.177 47.0691H132L127.746 41.547L126.144 43.1429V47.0691ZM146.308 42.6344H142.862V41.8153H147.23V47.0691H146.407V45.332C145.698 46.5466 144.606 47.3375 142.593 47.3375C140.012 47.3375 138.126 45.5438 138.126 41.9283C138.126 38.9483 139.629 36.6321 142.848 36.6321C144.989 36.6321 146.677 37.6772 147.116 39.8522H146.124C145.783 38.3269 144.436 37.4512 142.919 37.4512C140.225 37.4512 139.09 39.4285 139.09 42.3096C139.09 44.5552 140.452 46.5183 142.791 46.5183C143.897 46.5183 145.202 46.0523 145.868 44.7388C146.194 44.1033 146.294 43.3971 146.308 42.6344ZM150.505 41.6317H153.511C154.944 41.6317 156.05 41.0385 156.05 39.6121C156.05 38.0868 154.859 37.7196 153.568 37.7196H150.505V41.6317ZM153.54 42.4508H150.505V47.0691H149.541V36.9004H153.54C155.78 36.9004 157.014 37.6913 157.014 39.5697C157.014 40.8549 156.532 41.5328 155.355 42.0554C156.56 42.465 156.631 43.7361 156.659 44.8094C156.702 46.3488 156.83 46.7725 157.085 46.9703V47.0691H156.021C155.624 46.3771 155.724 44.4705 155.568 43.6937C155.341 42.5921 154.504 42.4508 153.54 42.4508ZM165.948 47.0691H159.013V36.9004H165.806V37.7196H159.978V41.3916H165.239V42.2107H159.978V46.25H165.948V47.0691ZM174.612 47.0691H167.677V36.9004H174.47V37.7196H168.642V41.3916H173.903V42.2107H168.642V46.25H174.612V47.0691ZM183.176 47.0691L177.306 38.1998H177.278V47.0691H176.313V36.9004H177.405L183.304 45.7839H183.332V36.9004H184.297V47.0691H183.176Z" fill="black"/>
</g>
<g id="SvgjsG1054">
<path id="Vector_3" d="M82.2341 9.56284H86.8519L79.1217 30.3964H74.3445L66.6577 9.56284H71.2612L76.7477 25.35L82.2341 9.56284ZM99.2578 30.6847C93.1054 30.6847 88.5599 26.5035 88.5599 19.9721C88.5599 13.4263 93.1054 9.27393 99.2578 9.27393C105.396 9.27393 109.941 13.4263 109.941 19.9721C109.941 26.5034 105.396 30.6847 99.2578 30.6847ZM99.2578 26.7198C102.862 26.7198 105.627 24.1966 105.627 19.9722C105.627 15.7621 102.862 13.2534 99.2578 13.2534C95.6531 13.2534 92.8882 15.7621 92.8882 19.9722C92.8882 24.1966 95.6531 26.7198 99.2578 26.7198ZM118.279 26.5756H124.837V30.3964H113.937V9.56284H118.279V26.5756Z" fill="black"/>
</g>
<g id="SvgjsG1055">
<path id="Vector_4" d="M130.935 9.27393C131.223 9.27393 131.467 9.37411 131.668 9.57448C131.869 9.77485 131.97 10.0182 131.97 10.3044V12.3939C131.97 12.6802 131.869 12.9235 131.668 13.1239C131.467 13.3242 131.223 13.4244 130.935 13.4244H127.975C127.707 13.4244 127.472 13.3242 127.271 13.1239C127.07 12.9235 126.969 12.6802 126.969 12.3939V10.3044C126.969 10.0182 127.07 9.77485 127.271 9.57448C127.472 9.37411 127.707 9.27393 127.975 9.27393H130.935ZM143.782 9.27393C144.05 9.27393 144.285 9.37411 144.486 9.57448C144.687 9.77485 144.788 10.0182 144.788 10.3044V12.3939C144.788 12.6802 144.687 12.9235 144.486 13.1239C144.285 13.3242 144.05 13.4244 143.782 13.4244H138.005V29.6829C138.005 29.95 137.905 30.1838 137.703 30.3842C137.502 30.5845 137.268 30.6847 136.999 30.6847H134.786C134.499 30.6847 134.255 30.5845 134.054 30.3842C133.852 30.1838 133.752 29.95 133.752 29.6829V10.3044C133.752 10.0182 133.852 9.77485 134.054 9.57448C134.255 9.37411 134.499 9.27393 134.786 9.27393H143.782ZM162.721 26.3911C163.009 26.3911 163.248 26.4913 163.44 26.6917C163.631 26.892 163.727 27.1353 163.727 27.4216V29.5111C163.727 29.7783 163.631 30.012 163.44 30.2124C163.248 30.4128 163.009 30.513 162.721 30.513H148.524C148.256 30.513 148.021 30.4128 147.82 30.2124C147.619 30.012 147.518 29.7783 147.518 29.5111V27.4216C147.518 27.1353 147.619 26.892 147.82 26.6917C148.021 26.4913 148.256 26.3911 148.524 26.3911H162.721ZM148.524 21.9544C148.256 21.9544 148.021 21.8542 147.82 21.6538C147.619 21.4535 147.518 21.2197 147.518 20.9525V18.8057C147.518 18.5386 147.619 18.3048 147.82 18.1044C148.021 17.9041 148.256 17.8039 148.524 17.8039H161.428C161.715 17.8039 161.96 17.9041 162.161 18.1044C162.362 18.3048 162.463 18.5386 162.463 18.8057V20.9525C162.463 21.2197 162.362 21.4535 162.161 21.6538C161.96 21.8542 161.715 21.9544 161.428 21.9544H148.524ZM162.721 9.27393C163.009 9.27393 163.248 9.37411 163.44 9.57448C163.631 9.77485 163.727 10.0086 163.727 10.2758V12.3653C163.727 12.6516 163.631 12.8949 163.44 13.0952C163.248 13.2956 163.009 13.3958 162.721 13.3958H148.524C148.256 13.3958 148.021 13.2956 147.82 13.0952C147.619 12.8949 147.518 12.6516 147.518 12.3653V10.2758C147.518 10.0086 147.619 9.77485 147.82 9.57448C148.021 9.37411 148.256 9.27393 148.524 9.27393H162.721ZM184.822 29.0531C184.937 29.2058 185.004 29.3775 185.023 29.5684C185.042 29.7592 185.014 29.9405 184.937 30.1122C184.86 30.284 184.736 30.4223 184.563 30.5273C184.391 30.6322 184.209 30.6847 184.017 30.6847H181.23C180.885 30.6847 180.607 30.5511 180.396 30.284L174.907 23.0421L169.418 30.284C169.207 30.5511 168.939 30.6847 168.613 30.6847H165.796C165.605 30.6847 165.428 30.637 165.265 30.5416C165.102 30.4462 164.982 30.3126 164.905 30.1409C164.714 29.7401 164.743 29.3775 164.992 29.0531L179.879 9.67466C180.09 9.4075 180.358 9.27393 180.683 9.27393H183.471C183.663 9.27393 183.84 9.3264 184.003 9.43136C184.166 9.53631 184.295 9.67466 184.391 9.84641C184.487 10.0182 184.525 10.1994 184.506 10.3903C184.487 10.5811 184.41 10.7528 184.276 10.9055L177.522 19.6645L184.822 29.0531ZM169.676 16.2582L165.538 10.9055C165.404 10.7528 165.327 10.5811 165.308 10.3903C165.289 10.1994 165.327 10.0182 165.423 9.84641C165.519 9.67466 165.648 9.53631 165.811 9.43136C165.974 9.3264 166.151 9.27393 166.342 9.27393H169.13C169.283 9.27393 169.437 9.30732 169.59 9.37411C169.743 9.4409 169.858 9.54108 169.935 9.67466L173.987 15.0274C174.255 15.3518 174.294 15.7143 174.102 16.1151C174.025 16.2868 173.906 16.4204 173.743 16.5158C173.58 16.6112 173.393 16.6589 173.182 16.6589H170.481C170.328 16.6589 170.174 16.6255 170.021 16.5587C169.868 16.492 169.753 16.3918 169.676 16.2582Z" fill="black"/>
</g>
</g>
</svg>
