<svg width="16" height="17" viewBox="0 0 16 17" fill="none" xmlns="http://www.w3.org/2000/svg">
<g id="copy-02">
<path id="Icon" d="M10.6673 5.83301V3.96634C10.6673 3.2196 10.6673 2.84624 10.522 2.56102C10.3942 2.31014 10.1902 2.10616 9.93931 1.97833C9.65409 1.83301 9.28072 1.83301 8.53398 1.83301H3.46732C2.72058 1.83301 2.34721 1.83301 2.062 1.97833C1.81111 2.10616 1.60714 2.31014 1.47931 2.56102C1.33398 2.84624 1.33398 3.2196 1.33398 3.96634V9.03301C1.33398 9.77974 1.33398 10.1531 1.47931 10.4383C1.60714 10.6892 1.81111 10.8932 2.062 11.021C2.34721 11.1663 2.72058 11.1663 3.46732 11.1663H5.33398M7.46732 15.1663H12.534C13.2807 15.1663 13.6541 15.1663 13.9393 15.021C14.1902 14.8932 14.3942 14.6892 14.522 14.4383C14.6673 14.1531 14.6673 13.7797 14.6673 13.033V7.96634C14.6673 7.2196 14.6673 6.84624 14.522 6.56102C14.3942 6.31014 14.1902 6.10616 13.9393 5.97833C13.6541 5.83301 13.2807 5.83301 12.534 5.83301H7.46732C6.72058 5.83301 6.34721 5.83301 6.062 5.97833C5.81111 6.10616 5.60714 6.31014 5.47931 6.56102C5.33398 6.84624 5.33398 7.2196 5.33398 7.96634V13.033C5.33398 13.7797 5.33398 14.1531 5.47931 14.4383C5.60714 14.6892 5.81111 14.8932 6.062 15.021C6.34721 15.1663 6.72058 15.1663 7.46732 15.1663Z" stroke="#2E85EC" stroke-linecap="round" stroke-linejoin="round"/>
</g>
</svg>
