<svg width="24" height="24" viewBox="0 0 24 24" fill="none" xmlns="http://www.w3.org/2000/svg">
<g id="shield-tick">
<path id="Solid" fill-rule="evenodd" clip-rule="evenodd" d="M11.714 1.08697C11.9037 1.05955 12.0964 1.05955 12.2861 1.08697C12.5047 1.11856 12.7081 1.19541 12.8697 1.25644L12.9129 1.27275L18.4054 3.33227C19.0232 3.56292 19.5657 3.76548 19.9835 4.1337C20.349 4.45582 20.6306 4.86212 20.8039 5.31746C21.0019 5.83797 21.0011 6.41709 21.0002 7.07653L21 11.9984C21 14.825 19.4627 17.1816 17.801 18.9128C16.1281 20.6556 14.214 21.8866 13.2019 22.477L13.1609 22.5011C12.9762 22.6095 12.7365 22.7503 12.4194 22.8183C12.1599 22.8739 11.8401 22.8739 11.5807 22.8183C11.2635 22.7503 11.0238 22.6095 10.8391 22.5011L10.7981 22.477C9.78602 21.8866 7.87198 20.6556 6.19908 18.9128C4.53731 17.1816 3.00002 14.825 3.00002 11.9984L2.99989 7.07654C2.99893 6.41709 2.99809 5.83797 3.19616 5.31746C3.36943 4.86212 3.65099 4.45582 4.01651 4.1337C4.43433 3.76548 4.97687 3.56292 5.59466 3.33227L11.0871 1.27275L11.1304 1.25644C11.2919 1.19541 11.4954 1.11856 11.714 1.08697ZM16.2071 9.70564C16.5976 9.31512 16.5976 8.68195 16.2071 8.29143C15.8166 7.9009 15.1834 7.9009 14.7929 8.29143L11 12.0843L9.70711 10.7914C9.31658 10.4009 8.68342 10.4009 8.29289 10.7914C7.90237 11.182 7.90237 11.8151 8.29289 12.2056L10.2929 14.2056C10.6834 14.5962 11.3166 14.5962 11.7071 14.2056L16.2071 9.70564Z" fill="#3BAD69"/>
</g>
</svg>
