<svg width="40" height="40" viewBox="0 0 40 40" fill="none" xmlns="http://www.w3.org/2000/svg">
<g id="compass-03">
<g id="Icon">
<path d="M19.9999 36.6666C29.2047 36.6666 36.6666 29.2047 36.6666 19.9999C36.6666 10.7952 29.2047 3.33325 19.9999 3.33325C10.7952 3.33325 3.33325 10.7952 3.33325 19.9999C3.33325 29.2047 10.7952 36.6666 19.9999 36.6666Z" stroke="#6ACB91" stroke-linecap="round" stroke-linejoin="round"/>
<path d="M24.5368 13.7765C25.351 13.5051 25.7581 13.3694 26.0289 13.4659C26.2645 13.55 26.4499 13.7354 26.5339 13.971C26.6304 14.2417 26.4947 14.6488 26.2233 15.4631L23.7441 22.9008C23.6668 23.1327 23.6281 23.2486 23.5623 23.3449C23.5039 23.4302 23.4302 23.5039 23.3449 23.5623C23.2486 23.6281 23.1327 23.6668 22.9008 23.7441L15.4631 26.2233C14.6488 26.4947 14.2417 26.6304 13.971 26.5339C13.7354 26.4499 13.55 26.2645 13.4659 26.0289C13.3694 25.7581 13.5051 25.351 13.7765 24.5368L16.2558 17.099C16.3331 16.8671 16.3717 16.7512 16.4376 16.6549C16.4959 16.5696 16.5696 16.4959 16.6549 16.4376C16.7512 16.3717 16.8671 16.3331 17.099 16.2558L24.5368 13.7765Z" stroke="#6ACB91" stroke-linecap="round" stroke-linejoin="round"/>
</g>
</g>
</svg>
