<svg width="25" height="24" viewBox="0 0 25 24" fill="none" xmlns="http://www.w3.org/2000/svg">
<g id="lightning-02">
<path id="Solid" d="M8.9944 1.00061L8.95941 1.00036C8.83255 0.999107 8.56944 0.996508 8.31988 1.08259C8.10969 1.15509 7.91825 1.2734 7.75941 1.42898C7.57081 1.6137 7.45546 1.8502 7.39985 1.96422L7.38443 1.99562L3.17028 10.4239C3.08696 10.5904 2.99673 10.7708 2.93463 10.9298C2.86951 11.0965 2.77511 11.3815 2.82509 11.7198C2.8854 12.128 3.11117 12.4933 3.44927 12.7298C3.72952 12.9258 4.02672 12.9688 4.20493 12.9852C4.37491 13.0007 4.57655 13.0007 4.76277 13.0006L9.65594 13.0006L7.04214 21.7133C6.90953 22.1553 7.09665 22.6307 7.49501 22.8637C7.89336 23.0968 8.39946 23.027 8.71981 22.6947L20.9386 10.0235C21.1218 9.83345 21.3031 9.64552 21.436 9.48069C21.556 9.33176 21.7921 9.02265 21.82 8.59926C21.8513 8.12397 21.655 7.66206 21.2912 7.3547C20.967 7.0809 20.5806 7.03628 20.3901 7.0193C20.1792 7.00052 19.9181 7.00056 19.6541 7.0006L13.943 7.00061L15.6863 2.35173C15.8015 2.04463 15.7587 1.70059 15.5719 1.43101C15.3851 1.16144 15.0779 1.00061 14.75 1.00061H8.9944Z" fill="black"/>
</g>
</svg>
